<?xml version="1.0"?>
<svg xmlns="http://www.w3.org/2000/svg" xmlns:xlink="http://www.w3.org/1999/xlink" xmlns:svgjs="http://svgjs.com/svgjs" version="1.1" width="512" height="512" x="0" y="0" viewBox="0 0 496 496" style="enable-background:new 0 0 512 512" xml:space="preserve" class=""><g>
<circle xmlns="http://www.w3.org/2000/svg" style="" cx="248" cy="24" r="24" fill="#4e6974" data-original="#383a39" class=""/>
<circle xmlns="http://www.w3.org/2000/svg" style="" cx="248" cy="472" r="24" fill="#e0e7eb" data-original="#eceeee" class=""/>
<circle xmlns="http://www.w3.org/2000/svg" style="" cx="136" cy="53.6" r="24" fill="#6e909d" data-original="#77807f" class=""/>
<path xmlns="http://www.w3.org/2000/svg" style="" d="M380.8,430.4c6.4,11.2,2.4,25.6-8.8,32.8c-11.2,6.4-25.6,2.4-32.8-8.8c-6.4-11.2-2.4-25.6,8.8-32.8  C359.2,415.2,374.4,419.2,380.8,430.4z" fill="#f2f4f4" data-original="#f2f4f4" class=""/>
<path xmlns="http://www.w3.org/2000/svg" style="" d="M65.6,115.2c11.2,6.4,15.2,20.8,8.8,32.8c-6.4,11.2-20.8,15.2-32.8,8.8c-11.2-6.4-15.2-20.8-8.8-32.8  S54.4,108.8,65.6,115.2z" fill="#6e909d" data-original="#9faaa9" class=""/>
<path xmlns="http://www.w3.org/2000/svg" style="" d="M454.4,339.2c11.2,6.4,15.2,20.8,8.8,32.8c-6.4,11.2-20.8,15.2-32.8,8.8  c-11.2-6.4-15.2-20.8-8.8-32.8C428,336.8,442.4,332.8,454.4,339.2z" fill="#f2f7f7" data-original="#f2f7f7" class=""/>
<circle xmlns="http://www.w3.org/2000/svg" style="" cx="24" cy="248" r="24" fill="#6e909d" data-original="#b2bbba" class=""/>
<circle xmlns="http://www.w3.org/2000/svg" style="" cx="472" cy="248" r="24" fill="#ffffff" data-original="#ffffff" class=""/>
<path xmlns="http://www.w3.org/2000/svg" style="" d="M41.6,339.2c11.2-6.4,25.6-2.4,32.8,8.8c6.4,11.2,2.4,25.6-8.8,32.8c-11.2,6.4-25.6,2.4-32.8-8.8  S30.4,346.4,41.6,339.2z" fill="#9cb4bd" data-original="#c5cccb" class=""/>
<path xmlns="http://www.w3.org/2000/svg" d="M430.4,115.2c11.2-6.4,25.6-2.4,32.8,8.8c6.4,11.2,2.4,25.6-8.8,32.8c-11.2,6.4-25.6,2.4-32.8-8.8  C415.2,136.8,419.2,121.6,430.4,115.2z" fill="#002b45" data-original="#000000" style="" class=""/>
<path xmlns="http://www.w3.org/2000/svg" style="" d="M115.2,430.4c6.4-11.2,20.8-15.2,32.8-8.8c11.2,6.4,15.2,20.8,8.8,32.8c-6.4,11.2-20.8,15.2-32.8,8.8  C112.8,456,108.8,441.6,115.2,430.4z" fill="#c9d5db" data-original="#d9dddd" class=""/>
<path xmlns="http://www.w3.org/2000/svg" style="" d="M339.2,41.6c6.4-11.2,20.8-15.2,32.8-8.8c11.2,6.4,15.2,20.8,8.8,32.8c-6.4,11.2-20.8,15.2-32.8,8.8  C336.8,68,332.8,53.6,339.2,41.6z" fill="#002b45" data-original="#111111" class=""/>
<g xmlns="http://www.w3.org/2000/svg">
</g>
<g xmlns="http://www.w3.org/2000/svg">
</g>
<g xmlns="http://www.w3.org/2000/svg">
</g>
<g xmlns="http://www.w3.org/2000/svg">
</g>
<g xmlns="http://www.w3.org/2000/svg">
</g>
<g xmlns="http://www.w3.org/2000/svg">
</g>
<g xmlns="http://www.w3.org/2000/svg">
</g>
<g xmlns="http://www.w3.org/2000/svg">
</g>
<g xmlns="http://www.w3.org/2000/svg">
</g>
<g xmlns="http://www.w3.org/2000/svg">
</g>
<g xmlns="http://www.w3.org/2000/svg">
</g>
<g xmlns="http://www.w3.org/2000/svg">
</g>
<g xmlns="http://www.w3.org/2000/svg">
</g>
<g xmlns="http://www.w3.org/2000/svg">
</g>
<g xmlns="http://www.w3.org/2000/svg">
</g>
</g></svg>
